<svg width="44" height="44" viewBox="0 0 44 44" fill="none" xmlns="http://www.w3.org/2000/svg">
<path d="M7.33334 40.3334H29.3333V36.6667H7.33334V14.6667H3.66667V36.6667C3.66667 38.6889 5.31117 40.3334 7.33334 40.3334Z" fill="white"/>
<path d="M36.6667 3.66669H14.6667C12.6445 3.66669 11 5.31119 11 7.33335V29.3334C11 31.3555 12.6445 33 14.6667 33H36.6667C38.6888 33 40.3333 31.3555 40.3333 29.3334V7.33335C40.3333 5.31119 38.6888 3.66669 36.6667 3.66669ZM33 20.1667H27.5V25.6667H23.8333V20.1667H18.3333V16.5H23.8333V11H27.5V16.5H33V20.1667Z" fill="white"/>
</svg>
