<svg width="44" height="44" viewBox="0 0 44 44" fill="none" xmlns="http://www.w3.org/2000/svg">
<g clip-path="url(#clip0_398_15)">
<path d="M28.8359 23.3672C28.8359 25.1802 28.1157 26.9189 26.8337 28.2009C25.5518 29.4829 23.813 30.2031 22 30.2031C20.187 30.2031 18.4482 29.4829 17.1663 28.2009C15.8843 26.9189 15.1641 25.1802 15.1641 23.3672C15.1641 21.5542 15.8843 19.8154 17.1663 18.5334C18.4482 17.2515 20.187 16.5312 22 16.5312C23.813 16.5312 25.5518 17.2515 26.8337 18.5334C28.1157 19.8154 28.8359 21.5542 28.8359 23.3672Z" fill="white"/>
<path d="M5.59375 11.0625C4.14335 11.0625 2.75235 11.6387 1.72676 12.6643C0.70117 13.6898 0.125 15.0808 0.125 16.5312L0.125 32.9375C0.125 34.3879 0.70117 35.7789 1.72676 36.8045C2.75235 37.8301 4.14335 38.4062 5.59375 38.4062H38.4062C39.8567 38.4062 41.2477 37.8301 42.2732 36.8045C43.2988 35.7789 43.875 34.3879 43.875 32.9375V16.5312C43.875 15.0808 43.2988 13.6898 42.2732 12.6643C41.2477 11.6387 39.8567 11.0625 38.4062 11.0625H35.2016C33.7513 11.0622 32.3605 10.4858 31.3352 9.46016L29.0711 7.19609C28.0457 6.17043 26.655 5.59406 25.2047 5.59375H18.7953C17.345 5.59406 15.9543 6.17043 14.9289 7.19609L12.6648 9.46016C11.6395 10.4858 10.2487 11.0622 8.79844 11.0625H5.59375ZM6.96094 16.5312C6.59834 16.5312 6.25059 16.3872 5.99419 16.1308C5.73779 15.8744 5.59375 15.5267 5.59375 15.1641C5.59375 14.8015 5.73779 14.4537 5.99419 14.1973C6.25059 13.9409 6.59834 13.7969 6.96094 13.7969C7.32354 13.7969 7.67129 13.9409 7.92768 14.1973C8.18408 14.4537 8.32812 14.8015 8.32812 15.1641C8.32812 15.5267 8.18408 15.8744 7.92768 16.1308C7.67129 16.3872 7.32354 16.5312 6.96094 16.5312ZM31.5703 23.3672C31.5703 25.9054 30.562 28.3396 28.7672 30.1344C26.9725 31.9292 24.5382 32.9375 22 32.9375C19.4618 32.9375 17.0275 31.9292 15.2328 30.1344C13.438 28.3396 12.4297 25.9054 12.4297 23.3672C12.4297 20.829 13.438 18.3947 15.2328 16.6C17.0275 14.8052 19.4618 13.7969 22 13.7969C24.5382 13.7969 26.9725 14.8052 28.7672 16.6C30.562 18.3947 31.5703 20.829 31.5703 23.3672Z" fill="white"/>
</g>
<defs>
<clipPath id="clip0_398_15">
<rect width="43.75" height="43.75" fill="white" transform="translate(0.125 0.125)"/>
</clipPath>
</defs>
</svg>
