<svg width="70" height="70" viewBox="0 0 70 70" fill="none" xmlns="http://www.w3.org/2000/svg">
<path d="M63.5994 29.2877H61.25V29.1666H35V40.8333H51.4835C49.0787 47.6248 42.6169 52.5 35 52.5C25.3356 52.5 17.5 44.6644 17.5 35C17.5 25.3356 25.3356 17.5 35 17.5C39.461 17.5 43.5196 19.1829 46.6098 21.9319L54.8596 13.6821C49.6504 8.82727 42.6825 5.83331 35 5.83331C18.8927 5.83331 5.83331 18.8927 5.83331 35C5.83331 51.1073 18.8927 64.1667 35 64.1667C51.1073 64.1667 64.1667 51.1073 64.1667 35C64.1667 33.0444 63.9654 31.1354 63.5994 29.2877Z" fill="#FFC107"/>
<path d="M9.19623 21.4244L18.7789 28.4521C21.3719 22.0325 27.6514 17.5 35 17.5C39.461 17.5 43.5196 19.1829 46.6098 21.9319L54.8596 13.6821C49.6504 8.82727 42.6825 5.83331 35 5.83331C23.7971 5.83331 14.0816 12.1581 9.19623 21.4244Z" fill="#FF3D00"/>
<path d="M35 64.1667C42.5337 64.1667 49.3792 61.2836 54.5548 56.595L45.5277 48.9563C42.501 51.2581 38.8025 52.503 35 52.5C27.4137 52.5 20.9723 47.6627 18.5456 40.9121L9.03436 48.2402C13.8614 57.6859 23.6644 64.1667 35 64.1667Z" fill="#4CAF50"/>
<path d="M63.5994 29.2877H61.25V29.1667H35V40.8334H51.4835C50.3332 44.0656 48.2611 46.8901 45.5233 48.9577L45.5277 48.9548L54.5548 56.5936C53.916 57.174 64.1667 49.5834 64.1667 35C64.1667 33.0444 63.9654 31.1354 63.5994 29.2877Z" fill="#1976D2"/>
</svg>
