<svg width="48" height="37" viewBox="0 0 48 37" fill="none" xmlns="http://www.w3.org/2000/svg">
<path d="M23.3636 9.59877L8.00063 22.1414V35.6784C8.00063 36.0289 8.1411 36.3651 8.39113 36.6129C8.64116 36.8608 8.98027 37 9.33386 37L18.6715 36.976C19.0239 36.9743 19.3613 36.8343 19.6099 36.5866C19.8585 36.339 19.998 36.0038 19.998 35.6545V27.749C19.998 27.3985 20.1385 27.0623 20.3885 26.8145C20.6386 26.5666 20.9777 26.4274 21.3313 26.4274H26.6642C27.0178 26.4274 27.3569 26.5666 27.6069 26.8145C27.857 27.0623 27.9974 27.3985 27.9974 27.749V35.6487C27.9969 35.8226 28.031 35.9949 28.0977 36.1557C28.1645 36.3165 28.2626 36.4627 28.3864 36.5859C28.5103 36.709 28.6575 36.8067 28.8195 36.8734C28.9815 36.9401 29.1552 36.9744 29.3307 36.9744L38.6649 37C39.0185 37 39.3576 36.8608 39.6077 36.6129C39.8577 36.3651 39.9982 36.0289 39.9982 35.6784V22.1323L24.6385 9.59877C24.4579 9.45449 24.233 9.37581 24.0011 9.37581C23.7691 9.37581 23.5442 9.45449 23.3636 9.59877ZM47.6309 18.1238L40.6648 12.4319V0.991182C40.6648 0.728304 40.5594 0.476193 40.3719 0.290311C40.1844 0.104428 39.9301 0 39.6649 0H34.9986C34.7334 0 34.479 0.104428 34.2915 0.290311C34.104 0.476193 33.9986 0.728304 33.9986 0.991182V6.98866L26.5384 0.904454C25.8224 0.320465 24.9241 0.0011674 23.9969 0.0011674C23.0697 0.0011674 22.1714 0.320465 21.4554 0.904454L0.362888 18.1238C0.261635 18.2067 0.177865 18.3086 0.116363 18.4237C0.0548607 18.5388 0.0168327 18.6647 0.00445145 18.7943C-0.00792977 18.924 0.00557845 19.0548 0.0442043 19.1792C0.0828301 19.3037 0.145817 19.4194 0.229565 19.5197L2.3544 22.0802C2.43792 22.1809 2.54065 22.2643 2.65671 22.3255C2.77277 22.3868 2.89988 22.4247 3.03076 22.4373C3.16164 22.4498 3.29373 22.4366 3.41945 22.3984C3.54518 22.3602 3.66208 22.2979 3.76346 22.2149L23.3636 6.21223C23.5442 6.06795 23.7691 5.98928 24.0011 5.98928C24.233 5.98928 24.4579 6.06795 24.6385 6.21223L44.2395 22.2149C44.3407 22.2979 44.4574 22.3603 44.583 22.3986C44.7085 22.4369 44.8405 22.4503 44.9712 22.438C45.102 22.4257 45.2291 22.388 45.3452 22.3271C45.4612 22.2661 45.564 22.1831 45.6477 22.0827L47.7726 19.5222C47.8562 19.4213 47.9189 19.305 47.9571 19.18C47.9953 19.055 48.0082 18.9237 47.995 18.7938C47.9818 18.6638 47.9429 18.5377 47.8804 18.4227C47.8179 18.3078 47.7331 18.2062 47.6309 18.1238Z" fill="white"/>
</svg>
