<svg width="37" height="37" viewBox="0 0 37 37" fill="none" xmlns="http://www.w3.org/2000/svg">
<path fill-rule="evenodd" clip-rule="evenodd" d="M25.4375 17.3438C25.4375 17.0371 25.5593 16.743 25.7762 16.5262C25.993 16.3093 26.2871 16.1875 26.5938 16.1875H35.8438C36.1504 16.1875 36.4445 16.3093 36.6613 16.5262C36.8782 16.743 37 17.0371 37 17.3438C37 17.6504 36.8782 17.9445 36.6613 18.1613C36.4445 18.3782 36.1504 18.5 35.8438 18.5H26.5938C26.2871 18.5 25.993 18.3782 25.7762 18.1613C25.5593 17.9445 25.4375 17.6504 25.4375 17.3438Z" fill="white"/>
<path d="M2.3125 32.375C2.3125 32.375 0 32.375 0 30.0625C0 27.75 2.3125 20.8125 13.875 20.8125C25.4375 20.8125 27.75 27.75 27.75 30.0625C27.75 32.375 25.4375 32.375 25.4375 32.375H2.3125ZM13.875 18.5C15.7149 18.5 17.4795 17.7691 18.7806 16.4681C20.0816 15.167 20.8125 13.4024 20.8125 11.5625C20.8125 9.72256 20.0816 7.95798 18.7806 6.65695C17.4795 5.35591 15.7149 4.625 13.875 4.625C12.0351 4.625 10.2705 5.35591 8.96945 6.65695C7.66841 7.95798 6.9375 9.72256 6.9375 11.5625C6.9375 13.4024 7.66841 15.167 8.96945 16.4681C10.2705 17.7691 12.0351 18.5 13.875 18.5Z" fill="white"/>
</svg>
