<svg width="57" height="57" viewBox="0 0 57 57" fill="none" xmlns="http://www.w3.org/2000/svg">
<path d="M38.855 33.25C39.045 31.6825 39.1875 30.115 39.1875 28.5C39.1875 26.885 39.045 25.3175 38.855 23.75H46.8825C47.2625 25.27 47.5 26.8612 47.5 28.5C47.5 30.1388 47.2625 31.73 46.8825 33.25H38.855ZM34.6513 46.455C36.0763 43.8187 37.1688 40.9688 37.9287 38H44.935C42.634 41.9622 38.9835 44.9635 34.6513 46.455ZM34.0575 33.25H22.9425C22.705 31.6825 22.5625 30.115 22.5625 28.5C22.5625 26.885 22.705 25.2938 22.9425 23.75H34.0575C34.2712 25.2938 34.4375 26.885 34.4375 28.5C34.4375 30.115 34.2712 31.6825 34.0575 33.25ZM28.5 47.405C26.5287 44.555 24.9375 41.3963 23.9638 38H33.0362C32.0625 41.3963 30.4713 44.555 28.5 47.405ZM19 19H12.065C14.3423 15.0271 17.9901 12.021 22.325 10.545C20.9 13.1813 19.8313 16.0312 19 19ZM12.065 38H19C19.8313 40.9688 20.9 43.8187 22.325 46.455C17.9992 44.9627 14.3565 41.9608 12.065 38ZM10.1175 33.25C9.7375 31.73 9.5 30.1388 9.5 28.5C9.5 26.8612 9.7375 25.27 10.1175 23.75H18.145C17.955 25.3175 17.8125 26.885 17.8125 28.5C17.8125 30.115 17.955 31.6825 18.145 33.25H10.1175ZM28.5 9.57125C30.4713 12.4213 32.0625 15.6038 33.0362 19H23.9638C24.9375 15.6038 26.5287 12.4213 28.5 9.57125ZM44.935 19H37.9287C37.1854 16.0585 36.0847 13.219 34.6513 10.545C39.0213 12.0413 42.655 15.0575 44.935 19ZM28.5 4.75C15.3662 4.75 4.75 15.4375 4.75 28.5C4.75 34.7989 7.25222 40.8398 11.7062 45.2938C13.9116 47.4992 16.5298 49.2486 19.4113 50.4421C22.2928 51.6357 25.3811 52.25 28.5 52.25C34.7989 52.25 40.8398 49.7478 45.2938 45.2938C49.7478 40.8398 52.25 34.7989 52.25 28.5C52.25 25.3811 51.6357 22.2928 50.4421 19.4113C49.2486 16.5298 47.4992 13.9116 45.2938 11.7062C43.0884 9.50082 40.4702 7.75141 37.5887 6.55786C34.7072 5.36431 31.6189 4.75 28.5 4.75Z" fill="white"/>
</svg>
